<svg xmlns="http://www.w3.org/2000/svg" viewBox="0 0 180.6 313.02"><defs><style>.cls-1{opacity:0.36;}</style></defs><g id="Camada_2" data-name="Camada 2"><g id="Camada_1-2" data-name="Camada 1"><path class="cls-1" d="M180.6,263.05V49.91L93.34,0l0,0h-6l0,0L0,50H0V263l0,0,87.35,50h6Zm-.93-1.82,0,0v.06L91.52,311.8V208.33l88.15-50.49ZM91.43,1.25l45.23,25.91,42.92,24.58V155.16l-88.1-50.48v-.06l0,0ZM1.15,51.73,89.31,1.24V104.68L1.15,155.19Zm88.07,260-38.4-22L1.12,261.3v-.06l-.05,0V157.87l88.15,50.49Zm-86-155.26,87.13-49.93,87.19,50-87.14,49.8Z"/></g></g></svg>