<svg width="40" height="40" viewBox="0 0 40 40" fill="none" xmlns="http://www.w3.org/2000/svg">
<path d="M4.58335 7.5C4.41771 7.49766 4.25326 7.52826 4.09955 7.59003C3.94584 7.6518 3.80594 7.7435 3.68798 7.8598C3.57002 7.97611 3.47635 8.1147 3.41241 8.26752C3.34848 8.42034 3.31555 8.58435 3.31555 8.75C3.31555 8.91566 3.34848 9.07966 3.41241 9.23249C3.47635 9.38531 3.57002 9.5239 3.68798 9.6402C3.80594 9.75651 3.94584 9.84821 4.09955 9.90998C4.25326 9.97174 4.41771 10.0023 4.58335 10H35.4167C35.5823 10.0023 35.7468 9.97174 35.9005 9.90998C36.0542 9.84821 36.1941 9.75651 36.3121 9.6402C36.43 9.5239 36.5237 9.38531 36.5876 9.23249C36.6516 9.07966 36.6845 8.91566 36.6845 8.75C36.6845 8.58435 36.6516 8.42034 36.5876 8.26752C36.5237 8.1147 36.43 7.97611 36.3121 7.8598C36.1941 7.7435 36.0542 7.6518 35.9005 7.59003C35.7468 7.52826 35.5823 7.49766 35.4167 7.5H4.58335ZM4.58335 18.75C4.41771 18.7477 4.25326 18.7783 4.09955 18.84C3.94584 18.9018 3.80594 18.9935 3.68798 19.1098C3.57002 19.2261 3.47635 19.3647 3.41241 19.5175C3.34848 19.6703 3.31555 19.8343 3.31555 20C3.31555 20.1657 3.34848 20.3297 3.41241 20.4825C3.47635 20.6353 3.57002 20.7739 3.68798 20.8902C3.80594 21.0065 3.94584 21.0982 4.09955 21.16C4.25326 21.2217 4.41771 21.2523 4.58335 21.25H35.4167C35.5823 21.2523 35.7468 21.2217 35.9005 21.16C36.0542 21.0982 36.1941 21.0065 36.3121 20.8902C36.43 20.7739 36.5237 20.6353 36.5876 20.4825C36.6516 20.3297 36.6845 20.1657 36.6845 20C36.6845 19.8343 36.6516 19.6703 36.5876 19.5175C36.5237 19.3647 36.43 19.2261 36.3121 19.1098C36.1941 18.9935 36.0542 18.9018 35.9005 18.84C35.7468 18.7783 35.5823 18.7477 35.4167 18.75H4.58335ZM4.58335 30C4.41771 29.9977 4.25326 30.0283 4.09955 30.09C3.94584 30.1518 3.80594 30.2435 3.68798 30.3598C3.57002 30.4761 3.47635 30.6147 3.41241 30.7675C3.34848 30.9203 3.31555 31.0844 3.31555 31.25C3.31555 31.4157 3.34848 31.5797 3.41241 31.7325C3.47635 31.8853 3.57002 32.0239 3.68798 32.1402C3.80594 32.2565 3.94584 32.3482 4.09955 32.41C4.25326 32.4717 4.41771 32.5023 4.58335 32.5H35.4167C35.5823 32.5023 35.7468 32.4717 35.9005 32.41C36.0542 32.3482 36.1941 32.2565 36.3121 32.1402C36.43 32.0239 36.5237 31.8853 36.5876 31.7325C36.6516 31.5797 36.6845 31.4157 36.6845 31.25C36.6845 31.0844 36.6516 30.9203 36.5876 30.7675C36.5237 30.6147 36.43 30.4761 36.3121 30.3598C36.1941 30.2435 36.0542 30.1518 35.9005 30.09C35.7468 30.0283 35.5823 29.9977 35.4167 30H4.58335Z" fill="#2D3142"/>
</svg>
