<svg width="182" height="313" viewBox="0 0 182 313" fill="none" xmlns="http://www.w3.org/2000/svg">
<path opacity="0.36" d="M181.4 263.05V49.91L94.14 0H88.14L0.800049 50V263L88.15 313H94.15L181.4 263.05ZM180.47 261.23V261.29L92.32 311.8V208.33L180.47 157.84V261.23ZM92.23 1.25L137.46 27.16L180.38 51.74V155.16L92.2801 104.68V104.62L92.23 1.25ZM1.95005 51.73L90.11 1.24V104.68L1.95005 155.19V51.73ZM90.0201 311.73L51.62 289.73L1.92005 261.3V261.24H1.87005V157.87L90.0201 208.36V311.73ZM4.02005 156.47L91.15 106.54L178.34 156.54L91.2001 206.34L4.02005 156.47Z" fill="white"/>
</svg>
